 <svg  version="1.0" xmlns="http://www.w3.org/2000/svg"  width="32" height="32" viewBox="0 0 864.000000 861.000000"  preserveAspectRatio="xMidYMid meet">  <g transform="translate(0.000000,861.000000) scale(0.100000,-0.100000)" fill="#5c66f1" stroke="none"> <path d="M1895 8475 c-60 -7 -130 -18 -155 -25 -134 -36 -158 -43 -195 -57 -22 -9 -53 -21 -70 -29 -16 -7 -57 -23 -90 -35 -65 -24 -261 -127 -310 -162 -321 -234 -493 -417 -630 -672 -129 -238 -171 -354 -225 -627 -12 -61 -17 -5098 -5 -5118 3 -5 12 -47 20 -93 24 -144 67 -292 109 -372 9 -16 16 -36 16 -44 0 -13 59 -130 71 -141 3 -3 15 -25 28 -50 120 -233 392 -514 649 -670 81 -49 238 -131 297 -155 121 -49 347 -104 475 -115 160 -13 4907 -15 5000 -2 243 35 462 119 709 270 120 73 341 254 404 332 21 25 60 72 88 105 91 109 187 271 248 420 18 44 39 95 47 113 8 18 14 41 14 50 0 10 4 22 8 28 9 9 28 79 56 204 35 154 35 228 27 2715 -8 2441 -9 2461 -29 2550 -39 166 -83 318 -112 380 -5 11 -18 43 -30 70 -90 212 -130 278 -263 438 -98 117 -96 115 -183 193 -152 136 -261 212 -411 288 -76 38 -116 56 -238 105 -73 29 -135 46 -330 89 l-120 26 -2380 2 c-1877 1 -2403 -1 -2490 -11z m2597 -1868 c43 -29 89 -63 103 -75 30 -26 90 -69 250 -177 66 -45 179 -121 250 -170 109 -74 214 -152 235 -175 3 -3 29 -21 58 -39 29 -19 64 -50 78 -70 l24 -36 0 -677 c0 -379 -4 -687 -9 -700 -5 -13 -19 -33 -30 -45 -38 -40 -76 -31 -259 64 -370 191 -616 313 -633 313 -15 0 -17 -16 -21 -157 -2 -89 0 -163 5 -170 5 -7 35 -27 66 -44 83 -46 97 -55 206 -124 55 -36 143 -90 195 -121 52 -32 132 -81 177 -111 45 -29 84 -53 87 -53 3 0 22 -12 43 -26 21 -14 51 -32 68 -40 17 -8 48 -31 68 -51 l37 -36 -2 -665 c-3 -640 -4 -665 -22 -676 -20 -12 -351 -232 -426 -283 -25 -17 -90 -60 -145 -96 -132 -86 -280 -189 -383 -265 -46 -34 -95 -65 -109 -68 -33 -9 -99 23 -178 85 -61 49 -357 245 -475 316 -70 42 -242 156 -250 166 -3 3 -49 32 -103 64 -153 91 -140 40 -131 515 4 223 8 540 8 705 1 217 4 306 13 321 20 34 83 66 133 68 33 1 64 -9 120 -36 41 -20 104 -50 140 -67 36 -17 106 -53 155 -80 238 -132 365 -192 384 -182 21 12 31 73 31 201 0 116 -17 140 -145 209 -68 38 -344 203 -485 293 -52 33 -140 82 -195 110 -55 27 -115 61 -133 75 l-33 25 5 86 c3 48 8 339 12 647 3 321 10 568 16 578 5 10 35 34 66 54 31 20 91 62 132 93 41 31 104 74 140 95 36 21 76 48 90 60 28 24 79 57 250 166 63 39 149 97 190 128 207 154 218 157 332 78z"/> <path d="M4527 6123 c-2 -5 -1 -217 2 -473 l6 -465 25 -6 c14 -4 46 -12 71 -18 26 -5 102 -40 169 -77 235 -126 314 -164 325 -153 6 6 11 158 13 410 l2 400 -26 24 c-14 13 -71 51 -127 85 -56 34 -137 85 -179 113 -237 159 -271 178 -281 160z"/> <path d="M4139 6102 c-36 -27 -206 -144 -364 -250 -80 -53 -144 -103 -148 -115 -5 -12 -5 -228 -1 -480 l7 -458 25 -19 c14 -11 29 -20 34 -20 6 0 30 -13 55 -30 24 -16 46 -30 48 -30 7 0 198 -117 290 -178 50 -33 93 -58 98 -55 8 5 10 1614 1 1637 -8 21 -16 20 -45 -2z"/> <path d="M4530 4070 c-12 -22 -9 -1704 3 -1716 8 -9 36 8 238 150 104 72 224 154 268 181 48 30 85 60 91 75 7 18 10 178 8 503 l-3 476 -35 30 c-19 16 -51 37 -70 47 -19 11 -131 76 -248 146 -117 71 -220 128 -227 128 -8 0 -19 -9 -25 -20z"/> <path d="M3627 3603 c-4 -3 -7 -201 -7 -439 l0 -433 43 -34 c23 -18 74 -51 112 -72 39 -21 131 -80 205 -130 75 -51 150 -100 167 -109 32 -16 33 -16 38 6 3 13 4 228 3 478 l-3 454 -145 76 c-150 78 -251 132 -333 181 -48 29 -68 35 -80 22z"/> </g> </svg> 