 <svg  version="1.0" xmlns="http://www.w3.org/2000/svg"  width="900.000000pt" height="849.000000pt" viewBox="0 0 900.000000 849.000000"  preserveAspectRatio="xMidYMid meet">  <g transform="translate(0.000000,849.000000) scale(0.100000,-0.100000)" fill="#6366f1" stroke="none"> <path d="M4735 8417 c-11 -7 -54 -38 -97 -69 -42 -32 -79 -58 -82 -58 -3 0 -25 -13 -48 -29 -24 -16 -90 -60 -148 -98 -58 -38 -133 -90 -168 -114 -35 -24 -71 -48 -80 -54 -9 -5 -33 -22 -53 -37 -20 -16 -40 -28 -43 -28 -4 0 -46 -26 -94 -57 -47 -32 -91 -60 -97 -63 -5 -3 -43 -27 -83 -55 -40 -27 -82 -54 -93 -60 -10 -5 -23 -19 -27 -30 -10 -29 -4 -1428 7 -1457 5 -14 29 -33 57 -47 27 -13 63 -34 81 -47 17 -13 35 -24 38 -24 4 0 37 -18 75 -40 64 -39 103 -60 225 -124 28 -15 62 -34 77 -44 61 -39 167 -102 223 -133 33 -18 77 -43 97 -56 21 -13 40 -23 44 -23 3 0 23 -13 44 -30 21 -16 42 -30 48 -30 5 0 33 -22 62 -49 28 -27 77 -61 107 -77 31 -15 69 -39 85 -52 16 -14 32 -21 36 -18 4 4 12 53 17 109 11 115 21 126 77 86 18 -13 46 -30 62 -39 17 -9 63 -34 101 -55 39 -21 93 -50 120 -65 54 -30 221 -127 270 -157 l30 -18 5 -560 c3 -308 3 -565 0 -572 -12 -28 -625 -443 -654 -443 -9 0 -16 8 -16 18 0 9 -1 360 -3 779 -1 526 -5 765 -13 773 -10 10 -50 3 -178 -28 -21 -5 -35 -20 -53 -55 -27 -50 -39 -55 -81 -33 -15 8 -56 29 -92 47 -36 17 -90 46 -120 62 -30 17 -147 77 -260 135 -175 89 -392 201 -479 248 -14 7 -28 11 -33 8 -4 -3 -8 -387 -8 -854 l0 -849 27 -26 c15 -14 31 -25 34 -25 3 0 15 -8 27 -18 12 -9 84 -57 162 -107 183 -117 302 -196 605 -399 137 -92 262 -174 277 -182 25 -13 30 -11 75 21 58 42 355 242 748 506 160 107 305 205 323 218 l32 25 0 760 c0 419 -4 766 -8 772 -4 6 -73 46 -154 88 -81 41 -156 80 -165 85 -10 6 -76 39 -148 74 -71 36 -218 110 -325 165 l-195 99 -3 967 c-2 859 0 967 13 972 9 4 26 -4 40 -18 14 -14 44 -38 68 -54 23 -16 44 -32 47 -35 3 -3 13 -8 22 -12 19 -7 116 -70 220 -144 37 -27 108 -76 157 -111 50 -34 96 -68 104 -76 18 -19 13 -957 -6 -968 -7 -3 -39 5 -72 19 -83 34 -262 93 -284 93 -15 0 -18 -9 -17 -52 0 -29 -5 -91 -11 -138 -14 -104 -28 -91 217 -211 315 -154 472 -223 492 -217 11 4 12 156 10 804 -2 439 -6 809 -9 821 -4 20 -62 73 -78 73 -4 0 -33 20 -65 45 -32 25 -61 45 -64 45 -3 0 -36 20 -72 45 -37 25 -83 55 -103 66 -20 10 -74 46 -121 80 -47 33 -143 99 -215 146 -71 47 -154 102 -183 122 -29 20 -60 41 -70 46 -9 6 -41 28 -72 51 -91 67 -108 73 -145 51z m-113 -1405 c-2 -580 1 -940 7 -955 8 -20 6 -31 -8 -48 l-17 -22 -60 39 c-32 21 -66 42 -74 47 -8 4 -42 23 -75 41 -33 19 -82 46 -110 60 -27 15 -63 36 -80 46 -16 11 -40 25 -52 31 -13 7 -23 16 -23 21 0 4 -5 8 -10 8 -6 0 -29 12 -53 27 -23 15 -58 35 -78 45 -20 10 -45 29 -56 41 -20 22 -20 31 -14 562 l6 539 90 62 c50 35 135 96 189 136 55 40 104 75 110 78 12 6 193 127 245 165 69 51 65 112 63 -923z m-623 -1874 c20 -12 38 -24 41 -27 3 -4 32 -20 65 -37 33 -17 85 -45 115 -61 30 -17 93 -51 140 -77 47 -25 92 -50 100 -56 8 -5 43 -23 77 -39 34 -17 67 -39 73 -50 13 -25 14 -1097 1 -1106 -5 -3 -45 19 -88 48 -67 46 -103 69 -191 122 -32 19 -107 70 -112 75 -3 4 -23 17 -45 30 -22 13 -42 27 -45 30 -3 4 -43 29 -90 58 -47 28 -93 59 -103 69 -15 17 -16 66 -17 518 0 275 -1 506 0 513 0 19 39 14 79 -10z"/> <path d="M7140 2560 c-19 -5 -55 -13 -80 -19 -165 -37 -345 -191 -415 -357 -52 -123 -58 -156 -58 -289 1 -143 12 -192 74 -321 63 -128 223 -262 354 -295 22 -6 58 -15 80 -20 52 -14 248 -14 300 0 22 5 59 15 82 20 91 23 249 127 260 170 5 21 -2 32 -38 63 -51 44 -73 47 -108 14 -62 -59 -186 -107 -315 -123 -78 -10 -226 34 -301 91 -146 109 -205 227 -205 411 0 160 37 254 140 355 36 36 82 73 101 82 109 53 109 53 249 53 133 0 136 -1 200 -33 35 -18 83 -49 106 -68 23 -19 48 -34 54 -34 19 0 107 77 112 98 14 50 -134 148 -282 187 -73 20 -257 28 -310 15z"/> <path d="M1789 2547 c-15 -12 -39 -57 -74 -142 -21 -52 -27 -65 -69 -158 -20 -42 -36 -81 -36 -86 0 -5 -6 -22 -14 -38 -8 -15 -19 -39 -25 -53 -5 -14 -26 -60 -45 -103 -20 -42 -36 -79 -36 -82 0 -4 -36 -83 -91 -203 -16 -34 -29 -66 -29 -70 0 -5 -11 -30 -24 -58 -13 -27 -40 -89 -61 -139 -21 -49 -42 -94 -47 -100 -4 -5 -8 -19 -8 -32 0 -22 3 -23 73 -23 86 0 105 12 137 85 31 73 36 84 64 147 l25 57 329 3 c181 2 336 2 344 0 8 -2 20 -13 26 -25 11 -23 47 -106 61 -142 26 -67 56 -116 75 -121 12 -3 51 -4 86 -2 60 3 65 5 62 25 -2 11 -34 95 -73 185 -68 159 -81 188 -139 313 -16 33 -38 83 -50 110 -11 28 -25 59 -30 70 -5 11 -18 43 -30 70 -12 28 -25 59 -30 70 -5 11 -19 43 -31 70 -12 28 -36 82 -54 120 -18 39 -49 110 -70 158 -21 48 -46 92 -56 97 -25 14 -141 12 -160 -3z m119 -272 c18 -35 32 -67 32 -70 0 -5 11 -33 50 -120 5 -11 23 -51 39 -88 17 -38 31 -70 31 -72 0 -3 15 -37 34 -77 38 -84 50 -124 37 -132 -4 -3 -122 -7 -261 -8 -248 -3 -253 -3 -260 18 -5 12 -3 32 5 50 8 16 26 58 41 94 14 36 34 83 45 105 10 22 29 68 43 102 15 35 37 86 50 115 13 29 31 74 41 101 10 26 23 47 30 47 6 0 26 -29 43 -65z"/> <path d="M2827 2551 c-27 -4 -53 -14 -58 -22 -10 -14 -11 -1202 -2 -1246 l5 -23 379 0 380 0 -3 83 -3 82 -275 5 c-151 3 -281 9 -287 13 -10 6 -13 127 -13 547 l0 539 -22 15 c-24 17 -26 17 -101 7z"/> <path d="M4190 2554 c-17 -5 -35 -36 -70 -119 -25 -60 -29 -69 -74 -168 -20 -42 -36 -79 -36 -82 0 -2 -11 -28 -24 -57 -13 -29 -41 -93 -61 -143 -20 -49 -43 -103 -50 -120 -8 -16 -21 -48 -30 -70 -9 -22 -23 -53 -30 -70 -47 -101 -75 -166 -75 -169 0 -4 -33 -77 -86 -193 -39 -84 -36 -89 48 -96 102 -9 110 -2 171 158 42 108 51 125 71 127 52 3 643 5 657 1 18 -4 52 -69 89 -173 13 -36 32 -77 42 -92 19 -27 23 -28 105 -28 l86 0 -6 30 c-4 16 -16 51 -27 77 -23 52 -36 82 -54 128 -26 62 -45 104 -121 270 -26 55 -53 114 -60 130 -7 17 -27 61 -44 98 -17 38 -31 70 -31 72 0 3 -25 57 -56 122 -30 65 -64 136 -74 158 -64 142 -93 196 -110 205 -18 10 -119 12 -150 4z m115 -280 c19 -41 35 -77 35 -80 0 -2 13 -32 29 -66 29 -63 58 -127 107 -235 14 -32 34 -77 45 -100 39 -86 54 -81 -248 -79 -267 1 -268 1 -271 23 -2 12 6 42 17 67 12 25 21 47 21 50 0 3 20 49 45 102 25 52 45 101 45 108 0 6 4 16 8 21 4 6 18 37 31 70 13 33 29 74 37 92 8 17 14 34 14 38 0 9 40 65 46 65 2 0 20 -34 39 -76z"/> <path d="M5180 2545 c-10 -12 -13 -146 -11 -632 1 -375 6 -624 12 -635 8 -15 22 -18 78 -18 46 0 72 5 80 14 8 10 10 136 5 480 l-7 466 26 0 c15 0 27 -4 27 -10 0 -11 134 -190 214 -286 28 -34 85 -105 126 -159 41 -54 82 -105 90 -114 8 -9 40 -48 70 -86 30 -39 60 -76 67 -83 7 -7 34 -41 60 -75 26 -34 55 -71 65 -82 9 -11 25 -30 35 -43 15 -20 28 -23 86 -25 51 -1 70 2 77 13 5 9 9 274 10 636 0 523 -2 623 -14 633 -9 7 -42 11 -88 9 l-73 -3 -3 -470 c-1 -258 -6 -473 -11 -478 -4 -4 -21 7 -37 25 -49 57 -99 119 -108 137 -5 9 -12 18 -15 21 -9 7 -200 246 -241 301 -71 96 -336 424 -364 451 -24 24 -36 28 -86 28 -39 0 -62 -5 -70 -15z"/> <path d="M8031 2536 c-12 -14 -17 -1248 -6 -1266 4 -6 181 -10 460 -10 439 0 455 1 465 19 11 22 13 120 2 137 -5 8 -111 12 -369 12 -200 0 -367 3 -373 7 -16 10 -13 372 3 382 6 4 151 8 320 8 346 0 327 -5 327 78 0 93 21 87 -325 87 -167 0 -310 3 -319 6 -14 5 -16 31 -16 189 0 140 3 185 13 194 9 7 127 12 368 13 l354 3 0 70 0 70 -115 6 c-63 4 -264 7 -447 8 -263 0 -333 -2 -342 -13z"/> <path d="M45 2530 c-8 -13 -7 -1232 1 -1253 6 -15 39 -17 339 -17 407 0 442 5 561 82 87 56 137 145 142 256 6 108 -17 172 -85 239 -29 29 -66 59 -83 68 -37 19 -37 27 -1 57 85 72 126 195 101 305 -30 138 -96 206 -244 254 -53 17 -91 19 -392 19 -213 0 -335 -4 -339 -10z m645 -157 c119 -33 187 -131 160 -229 -16 -55 -40 -87 -94 -122 l-41 -27 -238 -3 c-175 -3 -242 0 -253 8 -11 10 -14 46 -14 182 0 98 4 178 10 189 10 18 23 19 211 19 155 0 212 -4 259 -17z m-125 -543 c217 -9 237 -14 294 -72 29 -30 61 -103 61 -140 0 -11 -11 -43 -25 -71 -18 -39 -37 -61 -77 -87 l-53 -35 -264 -3 c-160 -2 -268 1 -273 6 -6 6 -11 93 -12 197 -1 177 0 188 18 201 23 16 52 16 331 4z"/> <path d="M5755 960 c-11 -5 -30 -9 -42 -9 -46 -2 -155 -63 -212 -120 -92 -92 -141 -212 -141 -349 0 -115 27 -207 89 -298 63 -93 114 -126 262 -173 41 -13 245 -15 253 -2 3 4 23 11 45 14 64 8 210 83 221 113 15 39 13 359 -2 372 -15 11 -338 4 -358 -8 -17 -11 -22 -66 -7 -79 7 -6 65 -12 128 -13 l114 -3 3 -104 c3 -124 1 -128 -102 -168 -61 -24 -85 -28 -166 -27 -116 1 -163 19 -239 96 -74 74 -104 142 -109 248 -7 143 46 261 153 342 65 49 123 68 209 68 76 0 133 -17 207 -62 25 -15 53 -28 62 -28 16 0 77 55 77 69 0 14 -45 50 -94 76 -83 44 -291 71 -351 45z"/> <path d="M1027 943 c-4 -3 -7 -210 -7 -460 l0 -453 23 -9 c12 -5 40 -6 62 -2 l40 6 0 343 c0 328 1 343 19 340 11 -2 31 -28 50 -64 18 -33 64 -111 102 -173 38 -62 74 -120 79 -129 46 -75 86 -132 94 -132 5 0 16 -2 23 -5 8 -3 23 2 34 12 19 17 124 184 124 196 0 3 13 26 30 50 17 25 30 47 30 50 0 3 19 38 43 79 24 40 46 81 50 91 3 9 15 17 27 17 19 0 20 -7 22 -337 l3 -338 58 -3 57 -3 0 454 c0 339 -3 456 -12 465 -7 7 -34 12 -60 12 -46 0 -50 -2 -73 -42 -14 -24 -59 -100 -100 -170 -41 -70 -75 -131 -75 -137 0 -5 -3 -11 -7 -13 -11 -4 -113 -173 -113 -185 0 -5 -11 -20 -24 -32 l-24 -22 -70 118 c-38 65 -82 141 -97 168 -16 28 -54 94 -86 148 -33 54 -59 100 -59 103 0 3 -10 18 -22 34 -20 27 -27 30 -78 30 -31 0 -60 -3 -63 -7z"/> <path d="M2582 938 c-6 -6 -12 -17 -12 -24 0 -7 -7 -25 -15 -41 -12 -22 -128 -274 -175 -378 -5 -11 -22 -49 -38 -85 -16 -36 -40 -87 -52 -115 -12 -27 -32 -72 -45 -100 -81 -177 -81 -175 -2 -175 60 0 57 -2 97 100 35 87 43 102 65 109 11 3 127 5 257 3 l237 -3 50 -103 c49 -102 51 -104 90 -111 23 -4 48 -2 60 4 23 13 20 31 -23 126 -15 33 -33 74 -40 90 -13 29 -62 135 -91 200 -8 17 -43 91 -78 165 -35 74 -76 162 -91 195 -69 154 -66 150 -127 153 -33 2 -59 -2 -67 -10z m84 -165 c4 -16 10 -32 14 -38 3 -5 16 -33 28 -61 12 -28 35 -82 52 -120 17 -38 36 -80 42 -94 5 -14 16 -38 24 -53 8 -16 14 -37 14 -48 0 -18 -9 -19 -194 -19 -166 0 -195 2 -200 16 -3 8 7 43 23 77 16 34 54 123 86 197 32 74 61 143 67 153 13 26 37 21 44 -10z"/> <path d="M3316 938 c-3 -7 -7 -214 -10 -460 -6 -437 -6 -447 13 -457 30 -17 87 -13 107 6 16 16 17 43 11 345 -5 241 -3 329 5 334 7 4 22 -7 37 -26 14 -19 46 -60 71 -91 25 -32 55 -71 67 -87 13 -16 73 -89 134 -163 62 -74 145 -176 187 -227 l74 -93 52 3 51 3 3 454 c2 357 0 456 -10 463 -20 12 -96 9 -105 -4 -4 -7 -10 -163 -13 -347 -3 -219 -9 -336 -15 -338 -6 -2 -55 56 -110 129 -87 117 -219 284 -235 298 -4 3 -35 43 -71 89 -148 194 -129 176 -187 179 -36 2 -53 -1 -56 -10z"/> <path d="M4690 903 c-21 -47 -32 -71 -100 -218 -35 -76 -47 -103 -80 -180 -21 -49 -53 -118 -113 -245 -16 -36 -34 -74 -38 -85 -4 -11 -17 -41 -28 -67 -12 -26 -21 -56 -21 -68 0 -19 5 -21 56 -18 l57 3 38 95 c21 52 46 101 56 108 14 10 68 13 238 11 121 -1 232 -3 246 -6 19 -3 30 -15 43 -46 10 -23 25 -55 32 -71 8 -16 14 -35 14 -43 0 -27 48 -63 84 -63 81 0 84 23 22 147 -45 90 -106 221 -106 229 0 5 -50 115 -90 199 -27 57 -49 105 -106 233 -59 133 -53 127 -121 130 l-62 3 -21 -48z m96 -120 c9 -27 44 -112 69 -168 12 -27 39 -90 60 -140 20 -49 41 -95 46 -101 23 -28 -19 -34 -202 -32 l-184 3 3 34 c1 19 6 39 11 45 5 6 21 39 35 73 24 57 55 128 92 210 8 17 14 37 14 44 0 15 29 49 42 49 5 0 11 -8 14 -17z"/> <path d="M6475 938 c-3 -7 -4 -215 -3 -463 l3 -450 330 -6 c182 -4 340 -5 353 -2 21 5 23 10 20 52 l-3 46 -274 3 c-182 1 -279 6 -288 13 -10 9 -13 46 -13 145 0 121 2 134 20 147 16 11 60 13 221 10 110 -3 212 -2 225 1 21 6 24 12 24 51 l0 45 -228 0 c-181 0 -232 3 -248 14 -17 13 -19 26 -16 147 1 82 6 137 14 146 9 11 58 14 260 12 277 -1 281 0 276 60 l-3 36 -333 3 c-261 2 -334 0 -337 -10z"/> <path d="M7382 488 l3 -463 63 -3 62 -3 2 118 c1 65 3 127 4 138 1 11 2 32 3 48 l1 27 120 0 c146 0 136 7 273 -197 90 -133 93 -136 169 -137 76 -1 83 12 38 70 -98 125 -190 256 -190 272 0 13 17 26 51 43 111 52 158 147 145 297 -7 85 -37 145 -94 191 -71 55 -107 61 -392 61 l-260 0 2 -462z m531 323 c21 -13 50 -39 64 -58 24 -31 27 -45 27 -107 0 -81 -11 -103 -79 -152 l-40 -29 -180 0 -180 0 -8 164 c-6 116 -5 172 3 189 l11 25 172 -5 c159 -4 176 -6 210 -27z"/> </g> </svg> 